<mxfile host="65bd71144e">
    <diagram name="Page-1" id="Yy-RZ77cXFvV3S9hnM0b">
        <mxGraphModel dx="791" dy="620" grid="1" gridSize="10" guides="1" tooltips="1" connect="1" arrows="1" fold="1" page="1" pageScale="1" pageWidth="850" pageHeight="1100" math="0" shadow="0">
            <root>
                <mxCell id="0"/>
                <mxCell id="1" parent="0"/>
                <mxCell id="hU-vW54nT15K_o2tqtt5-1" value="&lt;h1&gt;&lt;span style=&quot;background-color: initial;&quot;&gt;Control Glove Design&lt;/span&gt;&lt;/h1&gt;&lt;h1&gt;&lt;br&gt;&lt;/h1&gt;" style="text;html=1;strokeColor=none;fillColor=none;spacing=5;spacingTop=-20;whiteSpace=wrap;overflow=hidden;rounded=0;" parent="1" vertex="1">
                    <mxGeometry x="30" y="50" width="210" height="80" as="geometry"/>
                </mxCell>
                <mxCell id="hU-vW54nT15K_o2tqtt5-2" value="STM32F401CCU" style="rounded=1;whiteSpace=wrap;html=1;fillColor=#fa6800;fontColor=#000000;strokeColor=#C73500;" parent="1" vertex="1">
                    <mxGeometry x="330" y="220" width="170" height="90" as="geometry"/>
                </mxCell>
                <mxCell id="hU-vW54nT15K_o2tqtt5-3" value="MPU6050" style="rounded=1;whiteSpace=wrap;html=1;fillColor=#e3c800;fontColor=#000000;strokeColor=#B09500;" parent="1" vertex="1">
                    <mxGeometry x="120" y="380" width="170" height="60" as="geometry"/>
                </mxCell>
                <mxCell id="hU-vW54nT15K_o2tqtt5-4" value="MPU6050" style="rounded=1;whiteSpace=wrap;html=1;fillColor=#6d8764;fontColor=#ffffff;strokeColor=#3A5431;" parent="1" vertex="1">
                    <mxGeometry x="330" y="380" width="170" height="60" as="geometry"/>
                </mxCell>
                <mxCell id="hU-vW54nT15K_o2tqtt5-5" value="HMC5883L" style="rounded=1;whiteSpace=wrap;html=1;fillColor=#a0522d;fontColor=#ffffff;strokeColor=#6D1F00;" parent="1" vertex="1">
                    <mxGeometry x="530" y="380" width="170" height="60" as="geometry"/>
                </mxCell>
                <mxCell id="hU-vW54nT15K_o2tqtt5-7" value="" style="endArrow=classic;startArrow=classic;html=1;rounded=0;entryX=0.5;entryY=0;entryDx=0;entryDy=0;exitX=0.5;exitY=1;exitDx=0;exitDy=0;" parent="1" source="hU-vW54nT15K_o2tqtt5-2" target="hU-vW54nT15K_o2tqtt5-3" edge="1">
                    <mxGeometry width="50" height="50" relative="1" as="geometry">
                        <mxPoint x="400" y="320" as="sourcePoint"/>
                        <mxPoint x="450" y="270" as="targetPoint"/>
                    </mxGeometry>
                </mxCell>
                <mxCell id="hU-vW54nT15K_o2tqtt5-8" value="" style="endArrow=classic;startArrow=classic;html=1;rounded=0;entryX=0.5;entryY=0;entryDx=0;entryDy=0;exitX=0.5;exitY=1;exitDx=0;exitDy=0;" parent="1" source="hU-vW54nT15K_o2tqtt5-2" target="hU-vW54nT15K_o2tqtt5-4" edge="1">
                    <mxGeometry width="50" height="50" relative="1" as="geometry">
                        <mxPoint x="635" y="320" as="sourcePoint"/>
                        <mxPoint x="425" y="370" as="targetPoint"/>
                    </mxGeometry>
                </mxCell>
                <mxCell id="hU-vW54nT15K_o2tqtt5-9" value="" style="endArrow=classic;startArrow=classic;html=1;rounded=0;entryX=0.5;entryY=0;entryDx=0;entryDy=0;exitX=0.5;exitY=1;exitDx=0;exitDy=0;" parent="1" source="hU-vW54nT15K_o2tqtt5-2" target="hU-vW54nT15K_o2tqtt5-5" edge="1">
                    <mxGeometry width="50" height="50" relative="1" as="geometry">
                        <mxPoint x="425" y="340" as="sourcePoint"/>
                        <mxPoint x="425" y="390" as="targetPoint"/>
                    </mxGeometry>
                </mxCell>
                <mxCell id="hU-vW54nT15K_o2tqtt5-10" value="PC" style="rounded=0;whiteSpace=wrap;html=1;fillColor=#60a917;fontColor=#ffffff;strokeColor=#2D7600;" parent="1" vertex="1">
                    <mxGeometry x="330" y="80" width="170" height="70" as="geometry"/>
                </mxCell>
                <mxCell id="hU-vW54nT15K_o2tqtt5-11" value="" style="endArrow=classic;startArrow=classic;html=1;rounded=0;entryX=0.5;entryY=1;entryDx=0;entryDy=0;exitX=0.5;exitY=0;exitDx=0;exitDy=0;" parent="1" source="hU-vW54nT15K_o2tqtt5-2" target="hU-vW54nT15K_o2tqtt5-10" edge="1">
                    <mxGeometry width="50" height="50" relative="1" as="geometry">
                        <mxPoint x="410" y="280" as="sourcePoint"/>
                        <mxPoint x="460" y="230" as="targetPoint"/>
                    </mxGeometry>
                </mxCell>
                <mxCell id="hU-vW54nT15K_o2tqtt5-12" value="UART" style="text;html=1;strokeColor=none;fillColor=none;align=center;verticalAlign=middle;whiteSpace=wrap;rounded=0;" parent="1" vertex="1">
                    <mxGeometry x="410" y="170" width="60" height="30" as="geometry"/>
                </mxCell>
                <mxCell id="hU-vW54nT15K_o2tqtt5-13" value="I2C" style="text;html=1;strokeColor=none;fillColor=none;align=center;verticalAlign=middle;whiteSpace=wrap;rounded=0;" parent="1" vertex="1">
                    <mxGeometry x="260" y="320" width="60" height="30" as="geometry"/>
                </mxCell>
                <mxCell id="hU-vW54nT15K_o2tqtt5-14" value="I2C" style="text;html=1;strokeColor=none;fillColor=none;align=center;verticalAlign=middle;whiteSpace=wrap;rounded=0;" parent="1" vertex="1">
                    <mxGeometry x="365" y="320" width="60" height="30" as="geometry"/>
                </mxCell>
                <mxCell id="hU-vW54nT15K_o2tqtt5-15" value="I2C" style="text;html=1;strokeColor=none;fillColor=none;align=center;verticalAlign=middle;whiteSpace=wrap;rounded=0;" parent="1" vertex="1">
                    <mxGeometry x="500" y="320" width="60" height="30" as="geometry"/>
                </mxCell>
            </root>
        </mxGraphModel>
    </diagram>
</mxfile>